#!OML:ASF E:/inclinewalkrobotboard/Project1/Captureday1/Session1/subject1.ASF
:FULLY-SPECIFIED
:DEGREES
251
root 0 0 0 -0.8844055103111508 -2.796536257588377 -2.486459409792597
lowerback 9.330060198474783 0.35099658159568126 0.6534520259728436
upperback -0.06563133274621791 0.6820469582937709 1.7432625308880783
thorax -5.199215006571171 0.35496243935281285 1.3705651137895059
lowerneck -16.441849580452686 -2.958971053732187 -1.9312775737171681
upperneck 19.900967719544674 -3.792963144295514 0.7053408384545516
head 9.054290204861921 -1.8410679967451578 0.08310168927004646
rclavicle -6.567068164296909E-16 -4.815031834907119E-16
rhumerus -23.56389673012127 -18.888124534138363 -74.81295204323108
rradius 27.043057064731297
rwrist 6.564531356580154
rhand -15.73448001768848 20.90591138842868
rfingers 7.125020000000031
rthumb 10.43368877907939 -8.563083297479075
lclavicle -6.52525900787624E-16 -3.264215049096224E-16
lhumerus -29.473219830322392 1.4720451921815814 77.74147230861496
lradius 28.79544614342065
lwrist 3.015132229290412
lhand -23.616955575761875 23.32980397539587
lfingers 7.1250200000000365
lthumb 2.7938476442518585 52.984979342655365
rfemur -1.523077344137306 -9.330263612688938 12.837680794415235
rtibia 39.04297658673367
rfoot -9.117996682072187 -8.346871760572114
rtoes 6.577690072865824
lfemur -14.42253466925142 -0.45916396823841765 -20.82713894211677
ltibia 34.39216459065322
lfoot -9.238734333171031 -0.34199747103149036
ltoes -1.9692158843952328
252
root 0 0 0 -0.8837494973638975 -2.7968995907314245 -2.4866152053902137
lowerback 9.32973326047485 0.35101406048350114 0.6533978493289037
upperback -0.06585521948498219 0.6820575694648243 1.743275176637669
thorax -5.19927688772435 0.3549711622090827 1.370615439111981
lowerneck -16.441716089178577 -2.9588867176474936 -1.9312281931145616
upperneck 19.90104459387166 -3.7928761854066386 0.7054177900089669
head 9.054297671749666 -1.8410165564816499 0.08312615012236779
rclavicle -6.567144966146395E-16 -4.814997071618832E-16
rhumerus -23.564971732684135 -18.888009139209633 -74.81371192159926
rradius 27.04302316184035
rwrist 6.564036872848934
rhand -15.734985946449566 20.906320266494888
rfingers 7.125020000000031
rthumb 10.433201534027251 -8.562732086966735
lclavicle -6.525258217717059E-16 -3.2643967382003615E-16
lhumerus -29.472763206549914 1.472152670349364 77.74073715839442
lradius 28.795557263885645
lwrist 3.0147823356024013
lhand -23.616462441611045 23.329829886933947
lfingers 7.1250200000000365
lthumb 2.7943252679001027 52.98494949893393
rfemur -1.5192972317370845 -9.334783963521403 12.833283489571883
rtibia 39.04305820829844
rfoot -9.118520246350478 -8.347458796460623
rtoes 6.578513646389922
lfemur -14.423071154051371 -0.4590069426366252 -20.827259338934795
ltibia 34.39236633371174
lfoot -9.238899877454575 -0.34174153670336693
ltoes -1.96901373346061
253
root 0 0 0 -0.8831804695193917 -2.7972228505517904 -2.4867542042677844
lowerback 9.329451679366485 0.3510304814371621 0.653352451922931
upperback -0.06604877323331415 0.6820681685189808 1.743285093122835
thorax -5.199331067151576 0.3549794283164284 1.3706573155270747
lowerneck -16.441601880429694 -2.958812024360206 -1.931184170871585
upperneck 19.90110854665843 -3.7927993247547893 0.705485024759763
head 9.054303247289225 -1.8409706752950297 0.08314749592582638
rclavicle -6.567208383624354E-16 -4.814962809506009E-16
rhumerus -23.565922401710964 -18.8879069512705 -74.81438652542832
rradius 27.042992570889492
rwrist 6.5636002640003
rhand -15.735434322491702 20.906682494712832
rfingers 7.125020000000031
rthumb 10.432769665400244 -8.562420832643246
lclavicle -6.525281234872881E-16 -3.2645435863903253E-16
lhumerus -29.47240686780428 1.4722397460938321 77.74015723662436
lradius 28.795641837228793
lwrist 3.014504223187016
lhand -23.616079367413175 23.329852482897177
lfingers 7.1250200000000365
lthumb 2.7946961707764686 52.98492886394242
rfemur -1.5158779863931926 -9.338861905345937 12.829319094392488
rtibia 39.043110442499696
rfoot -9.118997594567732 -8.347989492214563
rtoes 6.5792505420239955
lfemur -14.42354151677204 -0.4588692243145456 -20.827364794644026
ltibia 34.39254353654372
lfoot -9.23904454151442 -0.34151731827931897
ltoes -1.9688365659230662
254
root 0 0 0 -0.8826886549471489 -2.7975090624531465 -2.486877506132746
lowerback 9.329209983392584 0.3510457210518956 0.6533144916493039
upperback -0.06621552772634232 0.6820784598028438 1.7432927829199782
thorax -5.19937834584013 0.3549871447504852 1.3706920545056325
lowerneck -16.441504485933585 -2.958746155539172 -1.9311451288014654
upperneck 19.901161515587667 -3.7927316931785677 0.7055435656413316
head 9.054307298178305 -1.8409299468465128 0.08316606185657227
rclavicle -6.567259689120868E-16 -4.814929640484564E-16
rhumerus -23.566757665181846 -18.887816996331562 -74.81498207750855
rradius 27.042965086646888
rwrist 6.563217316203016
rhand -15.735829383028676 20.90700149525444
rfingers 7.125020000000031
rthumb 10.432389086419255 -8.562146603506948
lclavicle -6.525322805257932E-16 -3.264661449890217E-16
lhumerus -29.472133750264113 1.472309782485726 77.73970646312603
lradius 28.79570446119127
lwrist 3.0142859004431344
lhand -23.61578759741736 23.32987220631987
lfingers 7.1250200000000365
lthumb 2.794978553915122 52.98491574671837
rfemur -1.5127786852649336 -9.342548422921567 12.825737630900349
rtibia 39.043137919341554
rfoot -9.119433815335784 -8.348470268259774
rtoes 6.579911151605433
lfemur -14.42395562183632 -0.45874792508697837 -20.827457549619112
ltibia 34.39269990518977
lfoot -9.239171454609144 -0.3413200693220304
ltoes -1.9686806752050199
255
root 0 0 0 -0.8822651212179515 -2.7977612665504346 -2.48698626148395
lowerback 9.329003240534664 0.35105971165655003 0.6532828071466823
upperback -0.06635868992238336 0.6820882274416571 1.7432986695182064
thorax -5.199419469132867 0.35499425314495964 1.3707207885203139
lowerneck -16.441421704795136 -2.9586883128077224 -1.9311106797316566
upperneck 19.901205180087544 -3.7926724461807826 0.7055943620177616
head 9.054310129958672 -1.8408939585695383 0.08318215759428593
rclavicle -6.567300137064709E-16 -4.814897983680621E-16
rhumerus -23.567486783004576 -18.887738276088662 -74.81550495443261
rradius 27.042940491394237
rwrist 6.562883674812102
rhand -15.736175468300043 20.90728078005946
rfingers 7.125020000000031
rthumb 10.432055615876429 -8.561906393282424
lclavicle -6.525378549742563E-16 -3.2647552725418774E-16
lhumerus -29.471929363688062 1.4723656325898684 77.73936268015916
lradius 28.79574903955115
lwrist 3.014117182510475
lhand -23.615571205962823 23.329889439326937
lfingers 7.1250200000000365
lthumb 2.7951878704541357 52.984908716828414
rfemur -1.5099636967722034 -9.34588786344942 12.822495623630928
rtibia 39.043144626846356
rfoot -9.11983333656095 -8.348906711845377
rtoes 6.580504496222229
lfemur -14.424321803704096 -0.45864060459001443 -20.82753949602997
ltibia 34.39283857031084
lfoot -9.2392832505096 -0.3411457822166035
ltoes -1.9685429283537967
